<svg xmlns="http://www.w3.org/2000/svg" data-name="Layer 1" viewBox="5 5 90 90" x="0px" y="0px"><title>BasicUI_50Icon_10px_grid</title><circle cx="50" cy="50" r="11.56"/><path d="M50,5A45,45,0,1,0,95,50,45,45,0,0,0,50,5ZM75.51,55,69,56.52a20,20,0,0,1-1,2.31l3.56,5.64a26.14,26.14,0,0,1-7.14,7.14L58.83,68a19.94,19.94,0,0,1-2.31,1L55,75.51a26,26,0,0,1-10.1,0L43.48,69a19.94,19.94,0,0,1-2.31-1l-5.64,3.56a26.14,26.14,0,0,1-7.14-7.14L32,58.83a20,20,0,0,1-1-2.31L24.49,55a26,26,0,0,1,0-10.1L31,43.48a20,20,0,0,1,1-2.31l-3.56-5.64a26.14,26.14,0,0,1,7.14-7.14L41.17,32a20,20,0,0,1,2.31-1L45,24.49a26,26,0,0,1,10.1,0L56.52,31a20,20,0,0,1,2.31,1l5.64-3.56a26.14,26.14,0,0,1,7.14,7.14L68,41.17a20,20,0,0,1,1,2.31L75.51,45a26,26,0,0,1,0,10.1Z"/></svg>